<?xml version="1.0" standalone="no"?><!DOCTYPE svg PUBLIC "-//W3C//DTD SVG 1.1//EN" "http://www.w3.org/Graphics/SVG/1.1/DTD/svg11.dtd"><svg t="1511851609128" class="icon" style="" viewBox="0 0 1024 1024" version="1.1" xmlns="http://www.w3.org/2000/svg" p-id="1636" xmlns:xlink="http://www.w3.org/1999/xlink" width="128" height="128"><defs><style type="text/css"></style></defs><path d="M512 187.982482C229.091971 187.982482 0 424.922628 0 717.173723h1024c0-292.251095-229.091971-529.191241-512-529.191241z" fill="#F0F7FF" p-id="1637"></path><path d="M512 300.846715C287.392701 300.846715 105.389781 489.20292 105.389781 721.284672h813.594161c-0.373723-232.081752-182.376642-420.437956-406.983942-420.437957z" fill="#DEEDFF" p-id="1638"></path><path d="M512 410.721168c-163.690511 0-296.362044 137.156204-296.362044 306.078832h592.350365c0.373723-168.922628-132.29781-306.078832-295.988321-306.078832z" fill="#CEE4FF" p-id="1639"></path><path d="M30.271533 719.789781H9.343066c-4.110949 0-7.474453 3.363504-7.474453 7.474453s3.363504 7.474453 7.474453 7.474452H29.89781c4.110949 0 7.474453-3.363504 7.474453-7.474452s-2.989781-7.474453-7.10073-7.474453zM401.751825 719.789781H59.048175c-4.110949 0-7.474453 3.363504-7.474452 7.474453s3.363504 7.474453 7.474452 7.474452h342.70365c4.110949 0 7.474453-3.363504 7.474452-7.474452s-3.363504-7.474453-7.474452-7.474453zM446.59854 719.789781h-13.827737c-4.110949 0-7.474453 3.363504-7.474453 7.474453s3.363504 7.474453 7.474453 7.474452h13.827737c4.110949 0 7.474453-3.363504 7.474453-7.474452s-3.363504-7.474453-7.474453-7.474453zM949.629197 719.789781H473.132847c-4.110949 0-7.474453 3.363504-7.474453 7.474453s3.363504 7.474453 7.474453 7.474452h476.49635c4.110949 0 7.474453-3.363504 7.474453-7.474452s-3.363504-7.474453-7.474453-7.474453zM1017.272993 719.789781h-26.160584c-4.110949 0-7.474453 3.363504-7.474453 7.474453s3.363504 7.474453 7.474453 7.474452h26.160584c4.110949 0 7.474453-3.363504 7.474452-7.474452s-3.363504-7.474453-7.474452-7.474453zM480.607299 812.09927H459.678832c-4.110949 0-7.474453 3.363504-7.474452 7.474453s3.363504 7.474453 7.474452 7.474452h20.554745c4.110949 0 7.474453-3.363504 7.474452-7.474452s-2.989781-7.474453-7.10073-7.474453zM944.023358 809.483212h-131.924088c-4.484672-16.817518-19.433577-29.150365-37.372263-29.150365-18.686131 0-34.756204 13.454015-38.119708 31.3927h-227.59708c-4.110949 0-7.474453 3.363504-7.474453 7.474453s3.363504 7.474453 7.474453 7.474453h227.59708c3.363504 17.938686 19.059854 31.392701 38.119708 31.3927 19.807299 0 35.877372-14.575182 38.493431-33.635036h130.80292c4.110949 0 7.474453-3.363504 7.474452-7.474453s-3.363504-7.474453-7.474452-7.474452z m-169.296351 33.635036c-13.080292 0-23.918248-10.837956-23.918248-23.918248 0-13.080292 10.837956-23.918248 23.918248-23.918248 13.080292 0 23.918248 10.837956 23.918248 23.918248 0 13.454015-10.837956 23.918248-23.918248 23.918248z" fill="#0076F5" p-id="1640"></path><path d="M438.750365 454.072993m-207.416058 0a207.416058 207.416058 0 1 0 414.832116 0 207.416058 207.416058 0 1 0-414.832116 0Z" fill="#B4D7FF" p-id="1641"></path><path d="M438.750365 668.589781c-118.470073 0-214.890511-96.420438-214.890511-214.890511s96.420438-214.890511 214.890511-214.890511 214.890511 96.420438 214.890511 214.890511c-0.373723 118.470073-96.794161 214.890511-214.890511 214.890511z m0-414.458394c-110.248175 0-199.941606 89.693431-199.941606 199.941606s89.693431 199.941606 199.941606 199.941606 199.941606-89.693431 199.941606-199.941606S548.624818 254.131387 438.750365 254.131387z" fill="#0076F5" p-id="1642"></path><path d="M452.951825 577.40146a164.064234 79.976642 0 1 0 328.128467 0 164.064234 79.976642 0 1 0-328.128467 0Z" fill="#FFFFFF" p-id="1643"></path><path d="M617.016058 664.852555c-96.046715 0-171.538686-38.493431-171.538686-87.451095 0-48.957664 75.491971-87.451095 171.538686-87.451095s171.538686 38.493431 171.538687 87.451095c0 48.957664-75.118248 87.451095-171.538687 87.451095z m0-159.953285c-84.835036 0-156.589781 33.261314-156.589781 72.50219s71.754745 72.50219 156.589781 72.50219S773.605839 616.642336 773.605839 577.40146s-71.754745-72.50219-156.589781-72.50219z" fill="#0076F5" p-id="1644"></path><path d="M617.016058 429.407299c-56.432117 0-102.026277 39.614599-102.026277 88.572263 0 16.443796 5.232117 31.392701 13.827737 44.472993 28.029197 3.737226 57.553285 5.605839 88.19854 5.605839s60.169343-1.868613 88.198541-5.605839c8.969343-13.080292 13.827737-28.40292 13.827737-44.472993 0-48.583942-45.594161-88.572263-102.026278-88.572263z" fill="#FFFFFF" p-id="1645"></path><path d="M617.016058 575.906569c-30.271533 0-60.169343-1.868613-89.319708-5.605839-2.242336-0.373723-4.110949-1.494891-5.232116-3.363504-10.090511-14.575182-15.322628-31.766423-15.322628-48.957664 0-53.068613 49.331387-96.046715 109.50073-96.046715 60.543066 0 109.50073 42.978102 109.50073 96.046715 0 17.191241-5.232117 34.008759-15.322628 48.957664-1.121168 1.868613-2.989781 2.989781-5.232117 3.363504-28.40292 3.737226-58.30073 5.605839-88.572263 5.605839z m-83.713868-20.181022c54.189781 6.727007 113.237956 6.727007 167.80146 0 7.10073-11.585401 10.837956-24.665693 10.837956-37.745985 0-44.846715-42.60438-81.09781-94.551825-81.09781s-94.551825 36.251095-94.551825 81.09781c-0.373723 13.454015 3.363504 26.160584 10.464234 37.745985z" fill="#0076F5" p-id="1646"></path><path d="M532.928467 601.319708m-16.443795 0a16.443796 16.443796 0 1 0 32.887591 0 16.443796 16.443796 0 1 0-32.887591 0Z" fill="#B4D7FF" p-id="1647"></path><path d="M532.928467 625.611679c-13.454015 0-23.918248-10.837956-23.918248-23.918248s10.837956-23.918248 23.918248-23.918249 23.918248 10.837956 23.918248 23.918249-10.464234 23.918248-23.918248 23.918248z m0-33.261314c-5.232117 0-8.969343 4.110949-8.969343 8.969343s4.110949 8.969343 8.969343 8.969343 8.969343-4.110949 8.969343-8.969343-4.110949-8.969343-8.969343-8.969343z" fill="#0076F5" p-id="1648"></path><path d="M696.245255 601.319708m-16.443795 0a16.443796 16.443796 0 1 0 32.887591 0 16.443796 16.443796 0 1 0-32.887591 0Z" fill="#B4D7FF" p-id="1649"></path><path d="M696.245255 625.611679c-13.454015 0-23.918248-10.837956-23.918248-23.918248s10.837956-23.918248 23.918248-23.918249 23.918248 10.837956 23.918249 23.918249-10.837956 23.918248-23.918249 23.918248z m0-33.261314c-5.232117 0-8.969343 4.110949-8.969343 8.969343s4.110949 8.969343 8.969343 8.969343 8.969343-4.110949 8.969344-8.969343-4.110949-8.969343-8.969344-8.969343z" fill="#0076F5" p-id="1650"></path><path d="M617.016058 612.905109m-16.443795 0a16.443796 16.443796 0 1 0 32.887591 0 16.443796 16.443796 0 1 0-32.887591 0Z" fill="#B4D7FF" p-id="1651"></path><path d="M617.016058 637.19708c-13.454015 0-23.918248-10.837956-23.918248-24.291971s10.837956-23.918248 23.918248-23.918248c13.454015 0 24.291971 10.837956 24.291971 23.918248 0 13.454015-10.837956 24.291971-24.291971 24.291971z m0-33.261314c-5.232117 0-8.969343 4.110949-8.969343 8.969343s4.110949 9.343066 8.969343 9.343066 9.343066-4.110949 9.343066-9.343066-4.110949-8.969343-9.343066-8.969343z" fill="#0076F5" p-id="1652"></path><path d="M497.424818 365.50073m-45.594161 0a45.594161 45.594161 0 1 0 91.188321 0 45.594161 45.594161 0 1 0-91.188321 0Z" fill="#FFFFFF" p-id="1653"></path><path d="M497.424818 418.569343c-29.524088 0-53.068613-23.918248-53.068614-53.068613s23.918248-53.068613 53.068614-53.068613c29.524088 0 53.068613 23.918248 53.068613 53.068613S526.948905 418.569343 497.424818 418.569343z m0-91.562044c-20.928467 0-38.119708 17.191241-38.119709 38.119708s17.191241 38.119708 38.119709 38.119708 38.119708-17.191241 38.119708-38.119708-16.817518-38.119708-38.119708-38.119708z" fill="#0076F5" p-id="1654"></path><path d="M330.370803 433.144526m-13.454015 0a13.454015 13.454015 0 1 0 26.90803 0 13.454015 13.454015 0 1 0-26.90803 0Z" fill="#FFFFFF" p-id="1655"></path><path d="M330.370803 454.072993c-11.585401 0-20.928467-9.343066-20.928467-20.928467s9.343066-20.928467 20.928467-20.928468 20.928467 9.343066 20.928467 20.928468-9.343066 20.928467-20.928467 20.928467z m0-26.908029c-3.363504 0-5.979562 2.616058-5.979562 5.979562s2.616058 5.979562 5.979562 5.979562 5.979562-2.616058 5.979562-5.979562-2.616058-5.979562-5.979562-5.979562z" fill="#0076F5" p-id="1656"></path><path d="M380.449635 539.281752m-30.271533 0a30.271533 30.271533 0 1 0 60.543066 0 30.271533 30.271533 0 1 0-60.543066 0Z" fill="#FFFFFF" p-id="1657"></path><path d="M380.449635 577.027737c-20.928467 0-37.745985-16.817518-37.745985-37.745985s16.817518-37.745985 37.745985-37.745986 37.745985 16.817518 37.745985 37.745986-16.817518 37.745985-37.745985 37.745985z m0-60.543065c-12.706569 0-22.79708 10.090511-22.79708 22.79708 0 12.706569 10.090511 22.79708 22.79708 22.79708s22.79708-10.090511 22.79708-22.79708c0-12.706569-10.090511-22.79708-22.79708-22.79708zM804.251095 668.589781H179.386861c-4.110949 0-7.474453-3.363504-7.474452-7.474453s3.363504-7.474453 7.474452-7.474452h624.490511c4.110949 0 7.474453 3.363504 7.474453 7.474452s-2.989781 7.474453-7.10073 7.474453zM861.80438 668.589781H840.875912c-4.110949 0-7.474453-3.363504-7.474452-7.474453s3.363504-7.474453 7.474452-7.474452h20.554745c4.110949 0 7.474453 3.363504 7.474452 7.474452s-2.989781 7.474453-7.100729 7.474453zM150.983942 668.589781h-20.554745c-4.110949 0-7.474453-3.363504-7.474452-7.474453s3.363504-7.474453 7.474452-7.474452h20.554745c4.110949 0 7.474453 3.363504 7.474452 7.474452s-3.363504 7.474453-7.474452 7.474453z" fill="#0076F5" p-id="1658"></path><path d="M83.340146 400.256934c-16.443796 0-29.89781-13.454015-29.89781-29.89781s13.454015-29.89781 29.89781-29.89781 29.89781 13.454015 29.89781 29.89781c0 16.817518-13.080292 29.89781-29.89781 29.89781z m0-44.846715c-8.221898 0-14.948905 6.727007-14.948905 14.948905s6.727007 14.948905 14.948905 14.948905 14.948905-6.727007 14.948905-14.948905-6.353285-14.948905-14.948905-14.948905z" fill="#0076F5" p-id="1659"></path><path d="M321.027737 202.557664H277.30219c-4.110949 0-7.474453-3.363504-7.474453-7.474452s3.363504-7.474453 7.474453-7.474453h43.725547c4.110949 0 7.474453 3.363504 7.474453 7.474453s-3.363504 7.474453-7.474453 7.474452z" fill="#83C0FC" p-id="1660"></path><path d="M299.351825 224.607299c-4.110949 0-7.474453-3.363504-7.474453-7.474452V173.407299c0-4.110949 3.363504-7.474453 7.474453-7.474452s7.474453 3.363504 7.474452 7.474452v43.725548c0 4.110949-3.363504 7.474453-7.474452 7.474452z" fill="#83C0FC" p-id="1661"></path><path d="M600.572263 241.79854c-17.564964 0-31.766423-14.20146-31.766424-31.766423s14.20146-31.766423 31.766424-31.766424 31.766423 14.20146 31.766423 31.766424-14.20146 31.766423-31.766423 31.766423z m0-48.210219c-9.343066 0-16.817518 7.474453-16.817518 16.817518s7.474453 16.817518 16.817518 16.817519 16.817518-7.474453 16.817518-16.817519-7.474453-16.817518-16.817518-16.817518z" fill="#83C0FC" p-id="1662"></path><path d="M87.451095 602.067153H43.351825c-4.110949 0-7.474453-3.363504-7.474453-7.474452s3.363504-7.474453 7.474453-7.474453h44.09927c4.110949 0 7.474453 3.363504 7.474452 7.474453s-3.363504 7.474453-7.474452 7.474452z" fill="#83C0FC" p-id="1663"></path><path d="M65.40146 624.116788c-4.110949 0-7.474453-3.363504-7.474453-7.474452v-44.09927c0-4.110949 3.363504-7.474453 7.474453-7.474453s7.474453 3.363504 7.474452 7.474453V616.642336c0 4.110949-3.363504 7.474453-7.474452 7.474452z" fill="#83C0FC" p-id="1664"></path><path d="M870.026277 549.372263c-14.20146 0-25.786861-11.585401-25.786861-25.786862 0-14.20146 11.585401-25.786861 25.786861-25.786861 14.20146 0 25.786861 11.585401 25.786862 25.786861 0 14.20146-11.585401 25.786861-25.786862 25.786862z m0-36.624818c-5.979562 0-10.837956 4.858394-10.837956 10.837956s4.858394 10.837956 10.837956 10.837957 10.837956-4.858394 10.837957-10.837957-4.858394-10.837956-10.837957-10.837956z" fill="#83C0FC" p-id="1665"></path></svg>